# xmcd
# Track frame offsets:
# 150
# 12667
# 26045
# 39998
# 52375
# 66228
# 85811
# 98265
# 110359
# 123589
# 142605
# 155882
# 168649
# 179901
# 198314
# 213754
# 238069
# 249459
#
# Disc length: 3494 seconds
# Revision: 0
# Processed by: cddbd v1.5.2PL0 Copyright (c) Steve Scherf et al.
# Submitted via: VisiTrax 2.10.0.248 - For more info visit www.synapsa.com
#
DISCID=010da412
DTITLE=Bobby Bare - Famous Country Music Makers
DYEAR=1999
DGENRE=
TTITLE0=500 miles away from home
TTITLE1=Detroit City
TTITLE2=Ride me down easy
TTITLE3=Green green grass of home
TTITLE4=Marie Laveaux
TTITLE5=Tequila Sheila
TTITLE6=Four strong winds
TTITLE7=The streets of Baltimore
TTITLE8=Miller's cave
TTITLE9=Numbers
TTITLE10=All American boys
TTITLE11=Shame on me
TTITLE12=Daddy what if
TTITLE13=The jogger
TTITLE14=The mermaid song
TTITLE15=The winner
TTITLE16=Please don't tell me
TTITLE17=Come sundown
EXTD=
EXTT0=
EXTT1=
EXTT2=
EXTT3=
EXTT4=
EXTT5=
EXTT6=
EXTT7=
EXTT8=
EXTT9=
EXTT10=
EXTT11=
EXTT12=
EXTT13=
EXTT14=
EXTT15=
EXTT16=
EXTT17=
PLAYORDER=
